<?xml version="1.0" encoding="utf-8"?>
<!-- Generator: Adobe Illustrator 19.1.0, SVG Export Plug-In . SVG Version: 6.00 Build 0)  -->
<svg version="1.1" id="Layer_1" xmlns="http://www.w3.org/2000/svg" xmlns:xlink="http://www.w3.org/1999/xlink" x="0px" y="0px"
	 viewBox="0 0 35.6 35.6" style="enable-background:new 0 0 35.6 35.6;" xml:space="preserve">
<style type="text/css">
	.st0{fill:#C0392B;}
	.st1{fill:#FFFFFF;}
</style>
<circle class="st0" cx="17.7" cy="17.5" r="17.9"/>
<g>
	<path class="st1" d="M15.2,6.8C15.7,6.3,16.4,6,17.2,6c0.8,0,1.5,0.3,2.1,0.8c0.6,0.5,0.9,1.2,0.9,1.9c0,0.8-0.3,1.4-0.9,1.9
		c-0.6,0.5-1.3,0.8-2.1,0.8c-0.8,0-1.5-0.3-2.1-0.8c-0.6-0.5-0.9-1.2-0.9-1.9C14.3,8,14.6,7.4,15.2,6.8z"/>
	<path class="st1" d="M22.3,29h-9.4v-1.1c0.3,0,0.5,0,0.8-0.1c0.2,0,0.5-0.1,0.6-0.1c0.3-0.1,0.5-0.3,0.7-0.5
		c0.1-0.2,0.2-0.5,0.2-0.9v-8.6c0-0.3-0.1-0.6-0.2-0.9c-0.2-0.3-0.4-0.5-0.6-0.6c-0.2-0.1-0.4-0.2-0.8-0.3c-0.4-0.1-0.7-0.2-1-0.2
		v-1.1l7.3-0.4l0.2,0.2v11.8c0,0.3,0.1,0.6,0.2,0.9c0.1,0.2,0.4,0.4,0.6,0.5c0.2,0.1,0.4,0.2,0.7,0.2c0.2,0.1,0.5,0.1,0.7,0.1
		L22.3,29L22.3,29L22.3,29z"/>
</g>
</svg>
