<?xml version="1.0" encoding="utf-8"?>
<!-- Generator: Adobe Illustrator 19.1.0, SVG Export Plug-In . SVG Version: 6.00 Build 0)  -->
<svg version="1.1" id="Layer_1" xmlns="http://www.w3.org/2000/svg" xmlns:xlink="http://www.w3.org/1999/xlink" x="0px" y="0px"
	 viewBox="0 0 28 37.6" style="enable-background:new 0 0 28 37.6;" xml:space="preserve">
<style type="text/css">
	.st0{fill:none;}
</style>
<path d="M28.4,15c0,0-0.2,0-0.2,0c0,0-0.2,0-0.2,0s0-0.4,0-0.4L25.2,4.1L25.1,4L25,4v0c0-0.1,0.2-0.2,0.1-0.3
	c-0.4-2.1-5.2-3.6-11.1-3.6C8.2,0.1,3.6,1,3,4h0L0,14.8c0,0,0,0,0,0c0,0.2,0,0.3,0,0.5c0,0,0,0,0,0V32h2.5c0,0,0.5,0.4,0.5,0.6v3.1
	c0,0.5-0.1,1,0.2,1.3c0.3,0.3,1.1,0.6,1.6,0.6c1,0,2.2-0.8,2.2-1.9v-3.1C7,32.4,6.1,32,6.1,32h16.2c0,0-0.3,0.4-0.3,0.6v3.1
	c0,0.5,0.3,1,0.7,1.3c0.3,0.3,0.9,0.6,1.4,0.6c1,0,1.9-0.8,1.9-1.9v-3.1c0-0.2,0-0.6,0-0.6h2V15L28.4,15C28.5,15,28.4,15,28.4,15z
	 M21.5,2.5C21.5,2.8,21.3,3,21,3H7.5C7.2,3,7,2.8,7,2.5l0,0C7,2.2,7.2,2,7.5,2H21C21.3,2,21.5,2.2,21.5,2.5L21.5,2.5z M4.2,29.5
	c-0.9,0-1.7-0.7-1.7-1.7c0-0.9,0.7-1.7,1.7-1.7c0.9,0,1.7,0.7,1.7,1.7C5.8,28.7,5.1,29.5,4.2,29.5z M2.6,14l2.1-7.4L5.1,5h18.1
	l0.5,1.4l0,0.1l2.2,7.4H2.6z M24.3,29.5c-0.9,0-1.7-0.7-1.7-1.7c0-0.9,0.7-1.7,1.7-1.7c0.9,0,1.7,0.7,1.7,1.7
	C25.9,28.7,25.2,29.5,24.3,29.5z"/>
<circle class="st0" cx="4.2" cy="28" r="1.7"/>
<circle class="st0" cx="24.3" cy="28" r="1.7"/>
<path d="M23.7,6.5C23.7,6.5,23.7,6.5,23.7,6.5l-0.5-1.6L23.7,6.5z"/>
<path d="M25.4,4.3C25.4,4.3,25.4,4.3,25.4,4.3L25.4,4.3C25.4,4.2,25.4,4.2,25.4,4.3z"/>
</svg>
