<?xml version="1.0" encoding="utf-8"?>
<!-- Generator: Adobe Illustrator 19.1.0, SVG Export Plug-In . SVG Version: 6.00 Build 0)  -->
<svg version="1.1" id="Layer_1" xmlns="http://www.w3.org/2000/svg" xmlns:xlink="http://www.w3.org/1999/xlink" x="0px" y="0px"
	 viewBox="0 0 35.6 35.6" style="enable-background:new 0 0 35.6 35.6;" xml:space="preserve">
<style type="text/css">
	.st0{fill:#C0392B;}
	.st1{fill:#FFFFFF;}
</style>
<circle class="st0" cx="45.7" cy="314.1" r="17.9"/>
<g>
	<path class="st1" d="M51.5,324.5c-4.1,0-8.2,0-12.3,0c-1.4-0.6-1.8-1.7-1.8-3.3c0.1-4.8,0.1-9.5,0-14.3c0-1.5,0.4-2.6,1.8-3.3
		c4.1,0,8.2,0,12.3,0c1.4,0.6,1.8,1.7,1.8,3.3c-0.1,4.8-0.1,9.5,0,14.3C53.3,322.8,52.9,323.9,51.5,324.5z M51.7,322.9
		c0-5.9,0-11.7,0-17.5c-4.3,0-8.5,0-12.7,0c0,5.9,0,11.7,0,17.5C43.2,322.9,47.4,322.9,51.7,322.9z"/>
	<path class="st1" d="M43.8,316.5c0-0.5,0-0.9,0-1.4c2.1,0,4.2,0,6.3,0c0,0.5,0,0.9,0,1.4C47.9,316.5,45.9,316.5,43.8,316.5z"/>
	<path class="st1" d="M50,308.6c0,0.5,0,0.9,0,1.4c-2.1,0-4.1,0-6.2,0c0-0.4,0-0.9,0-1.4C45.8,308.6,47.9,308.6,50,308.6z"/>
	<path class="st1" d="M43.7,313.3c0-0.5,0-1,0-1.5c1.8,0,3.6,0,5.5,0c0,0.5,0,1,0,1.5C47.4,313.3,45.6,313.3,43.7,313.3z"/>
	<path class="st1" d="M49.2,319.6c-1.8,0-3.6,0-5.4,0c0-0.5,0-0.9,0-1.4c1.8,0,3.6,0,5.4,0C49.2,318.7,49.2,319.1,49.2,319.6z"/>
	<path class="st1" d="M42,311.8c0,0.5,0,0.9,0,1.4c-0.4,0-0.9,0-1.4,0c0-0.4,0-0.9,0-1.4C41.1,311.8,41.5,311.8,42,311.8z"/>
	<path class="st1" d="M42,315c0,0.5,0,1,0,1.5c-0.5,0-0.9,0-1.4,0c0-0.5,0-0.9,0-1.5C41,315,41.5,315,42,315z"/>
	<path class="st1" d="M42,310c-0.5,0-0.9,0-1.4,0c0-0.5,0-0.9,0-1.4c0.5,0,0.9,0,1.4,0C42,309.1,42,309.6,42,310z"/>
	<path class="st1" d="M42,318.2c0,0.5,0,0.9,0,1.4c-0.5,0-0.9,0-1.4,0c0-0.5,0-0.9,0-1.4C41.1,318.2,41.5,318.2,42,318.2z"/>
</g>
<circle class="st0" cx="17.7" cy="17.5" r="17.9"/>
<g>
	<path class="st1" d="M17.9,20c-0.3,0-0.6-0.1-1.3-0.4l-9-4.7v9c0,0.7,0.6,1.3,1.3,1.3H27c0.7,0,1.3-0.6,1.3-1.3v-9l-9,4.7
		C18.6,19.9,18.3,20,17.9,20z M27,9.7H8.9c-0.7,0-1.3,0.6-1.3,1.3v1l10.3,5.4L28.3,12v-1C28.3,10.3,27.7,9.7,27,9.7z"/>
</g>
</svg>
