<?xml version="1.0" encoding="utf-8"?>
<!-- Generator: Adobe Illustrator 19.1.0, SVG Export Plug-In . SVG Version: 6.00 Build 0)  -->
<svg version="1.1" id="Layer_1" xmlns="http://www.w3.org/2000/svg" xmlns:xlink="http://www.w3.org/1999/xlink" x="0px" y="0px"
	 viewBox="0 0 35.6 35.6" style="enable-background:new 0 0 35.6 35.6;" xml:space="preserve">
<style type="text/css">
	.st0{fill:#C0392B;}
	.st1{fill:#FFFFFF;}
</style>
<circle class="st0" cx="17.8" cy="17.8" r="17.8"/>
<path class="st1" d="M27.5,16.4l-2-2V9.5c0-0.8-0.6-1.4-1.4-1.4h-1.4c-0.8,0-1.4,0.6-1.4,1.4v0.8l-2.8-2.8c-0.4-0.4-0.7-0.8-1.4-0.8
	s-1,0.4-1.4,0.8L7,16.4c-0.4,0.4-0.8,0.8-0.8,1.4c0,0.8,0.6,1.4,1.4,1.4H9v8.3c0,0.8,0.6,1.4,1.4,1.4h4.1v-6.9
	c0-0.8,0.6-1.4,1.4-1.4h2.8c0.8,0,1.4,0.6,1.4,1.4v6.9h4.1c0.8,0,1.4-0.6,1.4-1.4v-8.3h1.4c0.8,0,1.4-0.6,1.4-1.4
	C28.3,17.2,28,16.9,27.5,16.4z"/>
</svg>
