<?xml version="1.0" encoding="utf-8"?>
<!-- Generator: Adobe Illustrator 19.1.0, SVG Export Plug-In . SVG Version: 6.00 Build 0)  -->
<svg version="1.1" id="Layer_1" xmlns="http://www.w3.org/2000/svg" xmlns:xlink="http://www.w3.org/1999/xlink" x="0px" y="0px"
	 viewBox="0 0 14.6 23.2" style="enable-background:new 0 0 14.6 23.2;" xml:space="preserve">
<style type="text/css">
	.st0{fill:#CC1B1B;}
</style>
<path class="st0" d="M14.6,7.1c0-4-3.3-7.1-7.3-7.1C3.3,0,0,3,0,7c0,1.3,0.4,3.3,1,3.3h0l6.3,12.8l6.3-12.8h0
	C14.3,10.3,14.6,8.4,14.6,7.1z M7.3,11.2c-2,0-3.7-1.6-3.7-3.7c0-2,1.6-3.7,3.7-3.7c2,0,3.7,1.6,3.7,3.7C11,9.5,9.3,11.2,7.3,11.2z"
	/>
</svg>
