<?xml version="1.0" encoding="utf-8"?>
<!-- Generator: Adobe Illustrator 19.1.0, SVG Export Plug-In . SVG Version: 6.00 Build 0)  -->
<svg version="1.1" id="Layer_1" xmlns="http://www.w3.org/2000/svg" xmlns:xlink="http://www.w3.org/1999/xlink" x="0px" y="0px"
	 viewBox="0 0 26 23.2" style="enable-background:new 0 0 26 23.2;" xml:space="preserve">
<style type="text/css">
	.st0{fill:#0071BC;}
</style>
<g id="miu_2_">
	<g id="Artboard-1_2_" transform="translate(-395.000000, -119.000000)">
		<g id="slice_2_" transform="translate(215.000000, 119.000000)">
		</g>
		<path id="circle-backup-time-history-recent-time-machine-glyph_2_" class="st0" d="M397.4,129.3c1,0,5.9-10.2,11.7-10.2
			c6.6,0,11.9,5.1,11.9,11.7c0,6.6-5.3,11.5-11.9,11.5c-4.6,0-8.6-2.9-10.6-6.9h2.5c1.7,3,4.7,4.6,8.1,4.6c5.4,0,9.7-4.2,9.7-9.6
			c0-5.4-4.4-9.2-9.7-9.2c-4.6,0-8.5,2.1-9.5,8.1H397.4L397.4,129.3z M408,130.9l5.9,3.3l0.9-0.9l-4.8-3v-6.9h-2V130.9z
			 M398.2,133.7l3.2-4.3H395L398.2,133.7z"/>
	</g>
</g>
</svg>
