<?xml version="1.0" encoding="utf-8"?>
<!-- Generator: Adobe Illustrator 19.1.0, SVG Export Plug-In . SVG Version: 6.00 Build 0)  -->
<svg version="1.1" id="Layer_1" xmlns="http://www.w3.org/2000/svg" xmlns:xlink="http://www.w3.org/1999/xlink" x="0px" y="0px"
	 viewBox="0 0 23.1 23.2" style="enable-background:new 0 0 23.1 23.2;" xml:space="preserve">
<style type="text/css">
	.st0{fill-rule:evenodd;clip-rule:evenodd;fill:#0071BC;}
</style>
<g>
	<path class="st0" d="M16.2,14.2c0-1,0.8-1.8,1.8-1.9c-0.2-1-0.6-2-1.2-2.9c-0.3,0.3-0.7,0.4-1.2,0.4c-1.1,0-1.9-0.9-1.9-1.9
		c0-0.5,0.2-0.9,0.4-1.2c-0.9-0.6-2-1.1-3.2-1.3C10.8,6.3,9.9,7,9,7C8,7,7.2,6.3,7.1,5.3C5.9,5.6,4.8,6,3.9,6.6
		C4.2,7,4.4,7.4,4.4,7.9c0,1.1-0.9,1.9-1.9,1.9C2,9.8,1.6,9.7,1.2,9.4c-0.6,0.9-1,1.9-1.2,3c0.9,0.1,1.7,0.9,1.7,1.9
		c0,1-0.7,1.8-1.7,1.9c0.2,1.1,0.7,2.1,1.2,3c0.3-0.3,0.8-0.4,1.2-0.4c1.1,0,1.9,0.9,1.9,1.9c0,0.5-0.2,0.9-0.5,1.2
		c0.9,0.6,2,1.1,3.1,1.3c0.1-1,0.9-1.7,1.9-1.7s1.8,0.8,1.9,1.7C12,23,13,22.6,14,22c-0.3-0.3-0.5-0.8-0.5-1.3
		c0-1.1,0.9-1.9,1.9-1.9c0.5,0,0.9,0.2,1.3,0.5c0.6-0.9,1-2,1.3-3.1C17,16,16.2,15.2,16.2,14.2z M9,17.2c-1.7,0-3-1.4-3-3
		c0-1.7,1.4-3,3-3c1.7,0,3,1.4,3,3C12.1,15.8,10.7,17.2,9,17.2z"/>
	<path class="st0" d="M21.8,3c-0.2-0.4,0-1,0.4-1.2C21.8,1.4,21.4,1,21,0.7c-0.1,0.2-0.2,0.3-0.5,0.4c-0.5,0.2-1.1,0-1.3-0.5
		c-0.1-0.2-0.1-0.4-0.1-0.6C18.7,0,18.1,0,17.5,0.1c0.1,0.5-0.1,1-0.5,1.2c-0.4,0.2-1,0-1.2-0.4c-0.5,0.4-0.9,0.8-1.1,1.3
		c0.2,0.1,0.4,0.3,0.5,0.5c0.2,0.5,0,1.1-0.5,1.3C14.4,4,14.2,4.1,14,4c-0.1,0.5,0,1.1,0.1,1.6c0.5-0.1,1,0.1,1.2,0.5
		c0.2,0.4,0,1-0.4,1.2c0.3,0.4,0.7,0.8,1.2,1.1c0.1-0.2,0.3-0.4,0.5-0.5c0.5-0.2,1.1,0,1.3,0.5c0.1,0.2,0.1,0.4,0.1,0.7
		C18.4,9.2,19,9.2,19.6,9c-0.2-0.5,0.1-1,0.5-1.2c0.4-0.2,1,0,1.2,0.4c0.5-0.3,0.8-0.8,1.1-1.2c-0.2-0.1-0.4-0.3-0.5-0.5
		c-0.2-0.5,0-1.1,0.5-1.3c0.2-0.1,0.5-0.1,0.7-0.1c0.1-0.6,0.1-1.1-0.1-1.7C22.5,3.7,22,3.5,21.8,3z M19.2,5.9c-0.8,0.4-1.7,0-2-0.7
		c-0.4-0.8,0-1.7,0.7-2c0.8-0.4,1.7,0,2,0.7C20.3,4.6,19.9,5.5,19.2,5.9z"/>
</g>
</svg>
