<?xml version="1.0" encoding="utf-8"?>
<!-- Generator: Adobe Illustrator 19.1.0, SVG Export Plug-In . SVG Version: 6.00 Build 0)  -->
<svg version="1.1" id="Layer_1" xmlns="http://www.w3.org/2000/svg" xmlns:xlink="http://www.w3.org/1999/xlink" x="0px" y="0px"
	 viewBox="0 0 35.6 35.6" style="enable-background:new 0 0 35.6 35.6;" xml:space="preserve">
<style type="text/css">
	.st0{fill:#C0392B;}
	.st1{fill:#FFFFFF;}
</style>
<circle class="st0" cx="17.7" cy="17.8" r="17.9"/>
<path id="shop_13_" class="st1" d="M28.4,14.4l-2.1-2.9c-0.1-0.1-0.2-0.2-0.3-0.3V7.8c0-0.8-0.6-1.4-1.4-1.4H10.2
	C9.4,6.4,8.8,7,8.8,7.8v3.4c-0.1,0.1-0.2,0.2-0.3,0.3l-2.1,2.9c-0.3,0.4-0.4,0.8-0.4,1.3v0.7c0,1.2,1,2.1,2.1,2.1l0,0v9.3
	c0,0.8,0.6,1.4,1.4,1.4h15.7c0.8,0,1.4-0.6,1.4-1.4v-9.3l0,0c1.2,0,2.1-1,2.1-2.1v-0.7C28.8,15.2,28.7,14.7,28.4,14.4z M24.5,7.8
	v2.9H10.2l0,0V7.8H24.5z M13.2,17.1h-3l2.9-5h1.6L13.2,17.1z M15.4,12.1H17v5H14L15.4,12.1z M17.7,12.1h1.6l1.4,5h-3.1V12.1z
	 M20.1,12.1h1.6l2.9,5h-3L20.1,12.1z M7.3,16.4v-0.7c0-0.2,0.1-0.3,0.1-0.4l2.1-2.9c0.1-0.2,0.3-0.3,0.6-0.3h2l-2.9,5H8.1
	C7.7,17.1,7.3,16.8,7.3,16.4z M20.2,27.8h-5.4v-7.2h5.4V27.8z M25.2,27.8h-4.3v-7.2c0-0.4-0.3-0.7-0.7-0.7h-5.4
	c-0.4,0-0.7,0.3-0.7,0.7v7.2H9.5v-9.3h15.7V27.8z M27.4,16.4c0,0.4-0.3,0.7-0.7,0.7h-1.3l-2.9-5h2l0,0c0.2,0,0.4,0.1,0.6,0.3
	l2.1,2.9c0.1,0.1,0.1,0.3,0.1,0.4V16.4z"/>
</svg>
