<?xml version="1.0" encoding="utf-8"?>
<!-- Generator: Adobe Illustrator 19.1.0, SVG Export Plug-In . SVG Version: 6.00 Build 0)  -->
<svg version="1.1" id="Layer_1" xmlns="http://www.w3.org/2000/svg" xmlns:xlink="http://www.w3.org/1999/xlink" x="0px" y="0px"
	 viewBox="0 0 271 345.6" style="enable-background:new 0 0 271 345.6;" xml:space="preserve">
<style type="text/css">
	.st0{fill:#FCEE21;stroke:#191919;stroke-width:3;stroke-miterlimit:10;}
	.st1{fill:#2B2B2B;}
	.st2{fill:#CCCCCC;}
	.st3{fill:#5E97B7;stroke:#7A7978;stroke-miterlimit:10;}
	.st4{fill:#5E97B7;}
	.st5{fill:#B1B1B2;stroke:#141414;stroke-width:2;stroke-miterlimit:10;}
	.st6{fill:none;stroke:#1E1E1E;stroke-width:2;stroke-miterlimit:10;}
	.st7{fill:#CCCCCC;stroke:#808080;stroke-width:2;stroke-miterlimit:10;}
	.st8{fill:#808080;stroke:#808080;stroke-width:2;stroke-miterlimit:10;}
	.st9{fill:#808080;}
	.st10{fill:#809BAF;}
	.st11{fill:#FCEE21;}
</style>
<g>
	<path class="st0" d="M102.3,335.1c0,0-22.2-54,23-66.9c0,0,105.8-22.4,139.3,14.9c0,0,8.8,4.9,0,44.4c0,0,1.1,20.8-53.2,11.5
		c0,0,12.6-21.4-12.6-28c0,0-21.9-1.6-16.1,21.4c0,0-38.1,7.1-37-6.6c0,0-11.5-28-28,5.5C117.6,331.3,104.4,341.5,102.3,335.1z"/>
	<ellipse class="st1" cx="133.3" cy="331.4" rx="10.7" ry="14.3"/>
	<ellipse class="st2" cx="132.9" cy="331.5" rx="4.4" ry="5.9"/>
	<ellipse class="st1" cx="198.1" cy="328.3" rx="14.1" ry="15.6"/>
	<path class="st2" d="M203.4,328c0,3.3-2.4,6-5.4,6c-3,0-5.4-2.7-5.4-6c0-3.3,2.4-6,5.4-6C201,322,203.4,324.7,203.4,328z"/>
	<path class="st3" d="M120.4,273.4c0,0-13.2,6.1-8.8,15.1h13.7C125.3,288.5,130.6,272.3,120.4,273.4z"/>
	<path class="st4" d="M139.6,271.1c0,0-9.9,7.1-6.3,17.5c0,0,12.3,3.3,13.4,0C146.7,288.6,149.4,260.6,139.6,271.1z"/>
	<path class="st4" d="M154.4,268.7c0,0-3.3,16,0,19.9c0,0,11,1.6,15.3,0c0,0,4.4-17.8,0-19.9C169.7,268.7,162.1,263.4,154.4,268.7z"
		/>
	<path class="st4" d="M180.8,268.7c0,0-4.8,18.8,0,19.9c0,0,13.3,2.2,17.3,0c0,0,5.1-19.4-3.1-19.9
		C194.9,268.7,187.5,262,180.8,268.7z"/>
	<path class="st4" d="M206.4,268.7c0,0-3.3,17.7,0,19.9c0,0,9.3,3.8,12.6,0c0,0,4.9-17.8,0-19.9
		C219.1,268.7,207.1,264.6,206.4,268.7z"/>
	<path class="st5" d="M228.9,279.4c0,0-1.1,37.7-4.9,43.7c0,0,17.8,6.6,18.6,0c0,0,6.6-50,0-49.7
		C242.6,273.5,227.9,269.1,228.9,279.4z"/>
	<path class="st6" d="M232.6,324.6c0,0,4.4-12,4.8-51.1"/>
	<path class="st1" d="M107.2,296.8c0,0,88.4-5.1,109.6,3.3c0,0,3.3,10.9,1.5,18.1c0,0-24.9-26.5-111.1,1.3
		C107.2,319.5,101.7,312.7,107.2,296.8z"/>
	<path class="st7" d="M2.4,234.1c0,0,30.1-48.7,76.8-28.8c0,0,34.4-33.3,96.7,0c0,0,35.3,25.8-28.8,44.6c0,0-94.2,2.2-68.9,54.5
		c0,0-38.1-12.6-13.4-54.5c0,0,102.4-14.5,75.1-38.7c0,0-30-11.7-83.7,16.4c0,0-15.2,0-23.1,13.5C33,241.1-3,288.6,2.4,234.1z"/>
	<path class="st8" d="M8.8,236.9c0,0-5.6,30.5,9.7,10.2C18.5,247.1,6.7,257.7,8.8,236.9z"/>
	<path class="st8" d="M28,217c0,0,22.1-18.8,38-7.2C66,209.8,49.8,202.6,28,217z"/>
	<path class="st8" d="M122.6,193.5c0,0,70.1,13.3,46.8,39.5C169.4,233,205.7,206.4,122.6,193.5z"/>
	<path class="st8" d="M96.8,254.7c0,0-38.8,6.8-26.2,40.6C70.6,295.3,59.3,273.6,96.8,254.7z"/>
	<g>
		<path class="st7" d="M84,327.9c0,0-1.1-18.8-7.5-14.6C76.5,313.4,63.4,333.8,84,327.9z"/>
		<path class="st9" d="M75.4,323c0,0,3-15.1,5.9,1.3C81.3,324.3,79.2,314.5,75.4,323z"/>
	</g>
	<path class="st10" d="M248.8,279.8c0,0,1.6,16.7,0,27.2c0,0,9.2,8.5,14.3,3.4c0,0,3-19.6-3.2-27.2
		C259.9,283.3,251.6,275.4,248.8,279.8z"/>
</g>
<g>
	<path class="st11" d="M103.5,31h-8.1l-1.9-11.2c-0.4-2.1-0.7-4.1-0.8-5.6c-0.1-0.8-0.2-1.5-0.2-2c-0.1-0.5-0.1-0.9-0.1-1.2
		c-0.1,0.5-0.2,1.5-0.3,3c-0.1,0.8-0.1,1.5-0.2,2.4c-0.1,0.8-0.2,2.1-0.3,3L90,31h-7.8L75.3,0h8.2l1.4,8.2c0.5,3.4,0.9,5.9,1.1,7.8
		l0.3,2.7l0.3-2.5c0.3-2.8,0.6-5.2,1-7.8L89.1,0H96l1.4,7.1c0.6,3.4,1.2,7.4,1.7,12.1c0.1-2.1,0.3-4.1,0.5-5.7
		c0.2-1.6,0.4-2.9,0.6-4.2l1.5-9.3h8.1L103.5,31z"/>
	<path class="st11" d="M134,31h-8V19h-5v12h-8V0h8v12h5V0h8V31z"/>
	<path class="st11" d="M138,31V0h15v7h-6v5h6v7h-6v4h6v8H138z"/>
	<path class="st11" d="M178.2,31h-9l-4.1-11.4c0-0.2-0.1-0.6-0.2-0.9c-0.1-0.3,0-0.8-0.2-1.2l0.3,1.9V31h-9V0h8.8
		c3.8,0,6.6,0.4,8.4,1.9c2.4,1.9,3.6,4.4,3.6,7.9c0,3.7-1.6,6.6-4.8,8L178.2,31z M165,14h0.2c1,0,1.8-0.8,2.4-1.5
		c0.6-0.7,1-1.8,1-2.9c0-2.3-1.2-3.6-3.6-3.6h0.1V14z"/>
	<path class="st11" d="M182,31V0h15v7h-7v5h6v7h-6v4h7v8H182z"/>
</g>
<g>
	<path class="st11" d="M78,143V87h17.6c6.5,0,11.3,1.2,14.5,4.1c3.2,2.9,4.8,6.6,4.8,11.3c0,6.9-3.5,10.7-10.4,11.2
		c3.9,0.6,6.8,1.8,8.6,3.9s2.7,4.9,2.7,8.7c0,4.8-1.5,9.1-4.6,12c-3.1,2.9-7.1,4.9-12.1,4.9H78z M94,108h0.2c1.8,0,3.2-0.6,4.3-1.4
		c1-0.8,1.6-2.1,1.6-3.6c0-3.2-1.8-4.9-5.3-4.9c-0.2,0,0,0-0.2,0c-0.3,0-0.5,0-0.5,0V108z M94,130.3c0,0,0.1,0,0.3,0.1
		c0.2,0,0.2,0,0.3,0c1.9,0,3.3-0.5,4.4-1.5c1.1-1,1.6-2.4,1.6-4.1s-0.6-2.7-1.7-3.7c-1.1-1-2.7-1.1-4.6-1.1H94V130.3z"/>
	<path class="st11" d="M147,87h13v38.1c0,3.2-0.5,5.8-1.6,7.8c-1,2.1-2.7,4-5,5.7c-3.2,2.3-7,3.4-11.5,3.4c-5.1,0-9.1-1.2-12.6-3.7
		c-4.4-3.2-6.3-8.3-6.3-15.3V87h15v35.1c0,2.4-0.1,4.1,0.5,5.1c0.6,1,1.4,1.5,2.8,1.5c1.4,0,3.4-0.5,3.9-1.4c0.6-1,1.8-2.7,1.8-5.2
		V87z"/>
	<path class="st11" d="M167,139.8v-17.1c3,4,5.9,6,9.3,6c1.3,0,2.2-0.3,3-1c0.8-0.7,1.2-1.5,1.2-2.5c0-1.4-0.9-2.8-2.7-4.2l-2.5-1.8
		c-1.6-1.2-3-2.4-4.2-3.5c-1.2-1.2-2.1-2.4-2.8-3.6c-0.7-1.2-1.2-2.5-1.6-3.8c-0.3-1.3-0.5-2.7-0.5-4.2c0-2.5,0.6-5.1,1.8-7.8
		c0.6-1.3,1.3-2.4,2.1-3.5c0.8-1.1,1.7-2,2.7-2.8c2.8-2.3,6.8-3.5,10.8-3.5c3.6,0,7.3,0.9,11.3,2.8v16.6c-1-1.9-3.1-3.4-4.7-4.5
		c-1.6-1.1-3.4-1.6-4.9-1.6c-1.2,0-2.2,0.3-3,1c-0.8,0.6-1.2,1.4-1.2,2.3c0,1.4,1,2.9,3,4.3l2.4,1.7c3.2,2.2,5.4,4.4,6.8,6.8
		c1.4,2.3,2.1,5,2.1,8.1c0,5.3-1.7,9.6-5,13c-3.3,3.4-7.3,5.1-12.4,5.1C174.6,142,172,141.3,167,139.8z"/>
</g>
<path class="st11" d="M87,73h-9V43h9V73z"/>
<path class="st11" d="M93,71.9v-9.5c1,2.2,3.4,3.4,5.3,3.4c0.7,0,1.3-0.2,1.8-0.5c0.5-0.4,0.7-0.8,0.7-1.4c0-0.8-0.5-1.6-1.5-2.3
	l-1.4-1c-0.9-0.7-1.7-1.3-2.3-2c-0.6-0.6-1.2-1.3-1.6-2c-0.4-0.7-0.7-1.4-0.9-2.1c-0.2-0.7-0.3-1.5-0.3-2.3c0-1.4,0.3-2.8,1-4.4
	c0.3-0.7,0.7-1.4,1.2-1.9c0.4-0.6,0.9-1.1,1.5-1.6c1.6-1.3,3.3-1.9,5.5-1.9c2,0,4.8,0.5,5.8,1.5v9.2c0-1.1-1.3-1.9-2.2-2.5
	c-0.9-0.6-1.6-0.9-2.5-0.9c-0.6,0-1.1,0.2-1.5,0.5c-0.4,0.3-0.6,0.8-0.6,1.3c0,0.8,0.6,1.6,1.7,2.4l1.3,0.9c1.8,1.2,3,2.5,3.8,3.8
	c0.8,1.3,1.2,2.8,1.2,4.5c0,2.9-0.9,5.3-2.8,7.2c-1.9,1.9-4.2,2.8-7.1,2.8C97.4,73.1,96,72.7,93,71.9z"/>
<path class="st11" d="M168.9,73h-8.4l-0.3-14l-0.3-5.6c-0.1,1.1-0.2,2.1-0.3,3.1s-0.3,1.9-0.5,2.8L156.4,73h-6.9l-2.2-13.7
	c-0.1-0.8-0.3-2.1-0.5-4.1c0-0.3-0.1-0.9-0.2-1.8l-0.2,5.6L145.6,73h-8.9l3.6-30h10.4l1.7,10c0.1,0.9,0.3,1.6,0.4,2.6
	c0.1,1,0.2,2,0.3,3.2c0.2-2,0.4-3.4,0.7-5l2.1-10.9h10.1L168.9,73z"/>
<path class="st11" d="M189,73h-9V60.1L171.7,43h8.7l1.5,4.2c0.3,0.9,0.6,1.6,0.8,2.4c0.2,0.8,0.4,1.5,0.6,2.3c0.3-1.1,0.6-2.1,0.8-3
	c0.2-0.8,0.4-1.2,0.6-1.7l1.5-4.3h8.6L189,60.1V73z"/>
</svg>
